<?xml version="1.0" encoding="utf-8"?>
<!-- Generator: Adobe Illustrator 25.2.1, SVG Export Plug-In . SVG Version: 6.00 Build 0)  -->
<svg version="1.1" xmlns="http://www.w3.org/2000/svg" xmlns:xlink="http://www.w3.org/1999/xlink" x="0px" y="0px" width="744.7px"
	 height="690.4px" viewBox="0 0 744.7 690.4" style="enable-background:new 0 0 744.7 690.4;" xml:space="preserve">
<style type="text/css">
	.st0{display:none;}
	.st1{fill:url(#SVGID_1_);stroke:#80816B;stroke-miterlimit:10;}
</style>
<g id="Layer_1" class="st0">
	
		<image style="display:inline;overflow:visible;" width="4032" height="3024" xlink:href="55B6A3B0F22D24DF.jpg"  transform="matrix(1.192488e-08 1 -1 1.192488e-08 1750.725 -2016)">
	</image>
</g>
<g id="Layer_2">
</g>
<g id="Layer_3">
	<linearGradient id="SVGID_1_" gradientUnits="userSpaceOnUse" x1="394.7485" y1="606.1278" x2="394.7485" y2="153.78">
		<stop  offset="0" style="stop-color:#82836E"/>
		<stop  offset="0.4288" style="stop-color:#80816C"/>
		<stop  offset="0.6023" style="stop-color:#7B7B65"/>
		<stop  offset="0.7295" style="stop-color:#707159"/>
		<stop  offset="0.8342" style="stop-color:#626247"/>
		<stop  offset="0.924" style="stop-color:#4F5031"/>
		<stop  offset="1" style="stop-color:#3A3A17"/>
	</linearGradient>
	<path class="st1" d="M644.5,232.9c-1.9-16.4-19.3-25.1-42.5-25.1s-35.8,16.4-45.4,38.7c-9.7,22.2-1.9,48.3-3.9,68.6
		c-1.9,20.3-22.2,30.9-22.2,30.9s-17.4,5.8-30.9,6.8c-13.5,1-12.6-12.6-12.6-12.6s17.4-24.2,19.3-47.4c1.9-23.2-7.7-39.6-12.6-59.9
		c-4.8-20.3,6.8-22.2,6.8-22.2s9.7,16.2,20.7,22.2c11,6,25.2-13.8,24.3-25.2c-0.9-11.5-4.6-15.1-17-27.5
		c-12.4-12.4-40.8-11.5-53.6-0.9s-16.5,30.3-18.3,45.8c-1.8,15.6,8.3,41.7,8.7,53.2s-8.3,40.3-12.8,50s-18.8,17-18.8,17
		s-8.3,7.3-22-5s-11-58.7-7.8-72.9c3.2-14.2,17.9-42.6,20.2-58.2c2.3-15.6,4.1-18.8-7.3-39c-11.5-20.2-32.1-16.5-44.5-15.1
		c-12.4,1.4-22,16-23.4,32.1c-1.4,16,15.6,22.9,20.2,19.3s9.2-6,11.9-11.5c2.8-5.5,11-6.4,15.1-3.7c4.1,2.8,6,8.3,6.4,15.6
		c0.5,7.3-13.3,36.2-24.8,45.8c-11.5,9.6-23.4,41.7-25.2,54.1c-1.8,12.4,9.6,36.2,9.6,36.2s2.8,6.4-3.7,7.3c-6.4,0.9-15.6,0-15.6,0
		s-15.1-15.1-26.6-35.3c-11.5-20.2,0.9-55,6.4-77.9s-7.3-47.2-21.5-58.2s-31.6-10.1-40.3-7.3c-8.7,2.8-18.3,8.7-26.6,28.4
		c-8.3,19.7,0,23.4,18.3,32.1s21.5-5,21.5-5s3.2-9.6,10.5-12.4c7.3-2.8,7.3,3.2,6,17.9s-6,26.1-11.9,37.6
		c-6,11.5-17.9,36.7-18.8,55.5c-0.9,18.8,7.3,28,7.3,28H258c0,0-2.8,0.9-8.3-1.4c-5.5-2.3-12.8-13.3-19.7-28
		c-6.9-14.7-1.8-66.9-6-86.2c-4.1-19.3-18.3-24.8-36.7-28.9s-30.7,8.7-37.1,17.4c-6.4,8.7-8.3,29.3,0,42.6
		c8.3,13.3,22.5,10.1,31.2,2.8c8.7-7.3,6-14.7,6-14.7s-5.5-9.6,0-20.2c5.5-10.5,9.2,6,9.2,6c2.8,7.3,0.9,33,0.9,33
		s-6.9,29.8-4.1,63.3c2.8,33.5,36.7,50.9,36.7,50.9l2.7,14.8c0,0,1,32.9,1.9,108.2s-1,77.3,18.4,88.4c19.3,11.1,73.4-1.5,97.6-5.3
		c24.2-3.9,64.8-2.9,64.8-2.9s112.1,10.6,134.3,7.7c22.2-2.9,25.1-24.2,23.2-39.6c-1.9-15.5-9.7-73.4-9.7-73.4v-59.9l-2.9-56.1
		c0,0,5.8,0,24.2-28c18.4-28,6.8-42.5,2.9-51.2c-3.9-8.7-3.9-26.1,0-43.5s11.6-10.6,11.6-10.6s7.7,26.1,23.2,24.2
		C637.7,260.9,646.4,249.4,644.5,232.9z M534.3,506.5c-7.7,2-14.5-6.8-14.5-6.8l-4.8-54.1c0,0,8.7-1.9,12.3,0
		c3.6,1.9,11.8,8.2,11.8,8.2v38.2C539.1,491.9,542,504.5,534.3,506.5z M515,373.1c8.7-1,24.2,14.5,24.2,14.5v26.1
		c0,0-1.9,11.6-9.7,12.1c-7.7,0.5-32.9-6.3-32.9-6.3l-5.8-39.5C502.4,379.9,506.3,374,515,373.1z M400.9,373.1l29-4.8
		c0,0,30-1,37.7,0c7.7,1,11.6,11.7,11.6,11.7l3.9,29.4c0,0-3.9,13-18.4,15.8c-14.5,2.8-63.8-5.7-63.8-5.7V373.1z M327.5,385.6
		c10.6-11.6,25.1-12.6,25.1-12.6h30c0,0,6.8,16.4,6.8,23.2s0,23.2,0,23.2s-22.4,2.9-34.4,4.8s-22.6,0-22.6,0l-10.6-4.8
		C321.7,419.4,316.9,397.2,327.5,385.6z M327.5,438.8c6.8,1.9,7.7,10.6,11.6,21.3c3.9,10.6,15.9,37.7,15.9,37.7s-3.3,8.7-22.6,12.6
		s-34.8,8.7-40.6,0c-5.8-8.7,0-62.8,0-62.8C303.3,439.7,320.7,436.8,327.5,438.8z M256,389.5c9.7-10.6,42.5-9.5,42.5-9.5
		s2.9,24,0,37.6c-2.9,13.5-11.6,14.5-11.6,14.5l-34.8,6.8C252.1,438.8,246.3,400.1,256,389.5z M250.4,457.1c0.2-7.7,20.1,0,20.1,0
		l4.6,53.2l-24.7,5.8C250.4,516.1,250.2,464.9,250.4,457.1z M308.2,569.2c0,0-1,17.4-14.5,21.3c-13.5,3.9-29-5.8-38.7-9.7
		c-9.7-3.9,0-46.4,0-46.4s21.3-7.7,34.1-7.7c12.9,0,19,7.7,19,7.7V569.2z M364.2,578.9c0,0-32.9,1.9-37.7,3.9
		c-4.8,1.9-4.8-49.3-4.8-49.3s0,0,10.6-6.8s34.8-1,35.8,0C369,527.7,364.2,578.9,364.2,578.9z M381.6,491c-2.9,1-13.4,3.9-13.4,3.9
		L355,436.8h14l12.7,34.8C381.6,471.6,384.5,490,381.6,491z M406.7,489c0,0-12.6,1.9-12-4.1c0.6-6.1-17-48.1-17-48.1
		c34.8-8.8,38.7,7.9,38.7,7.9L406.7,489z M416.4,489.3l6.8-52.5H442c0,0,6.3,2,5.1,10.7c-1.2,8.7-18.6,41.8-18.6,41.8H416.4z
		 M475.3,573.1c0,0-12.6-1.9-22.2-8.7c-9.7-6.8-4.8-37.7-4.8-37.7l16.9-3.2l14.1,3.2c0,0,1.8,25.1,3.7,36.7
		C485,575,475.3,573.1,475.3,573.1z M483.1,506.4l-34.8-7.7c0,0,8.7-53.2,18.4-59.9c9.7-6.8,35.8,5.8,35.8,5.8s9.7,45.4,7.7,54.1
		C508.2,507.4,483.1,506.4,483.1,506.4z M539.7,573.2l-12.3,9.6c0,0-18.1-1-23.9-9.6c-5.8-8.6-4.8-38.8-4.8-38.8l28.8-7.7
		c0,0,10.8,6.8,15.7,21.6S539.7,573.2,539.7,573.2z"/>
</g>
</svg>
