<?xml version="1.0" encoding="utf-8"?>
<!-- Generator: Adobe Illustrator 25.2.1, SVG Export Plug-In . SVG Version: 6.00 Build 0)  -->
<svg version="1.1" xmlns="http://www.w3.org/2000/svg" xmlns:xlink="http://www.w3.org/1999/xlink" x="0px" y="0px" width="271.6px"
	 height="244.6px" viewBox="0 0 271.6 244.6" style="enable-background:new 0 0 271.6 244.6;" xml:space="preserve">
<style type="text/css">
	.st0{display:none;}
	.st1{fill:url(#SVGID_1_);stroke:#80816B;stroke-miterlimit:10;}
</style>
<g id="Layer_1" class="st0">
	
		<image style="display:inline;overflow:visible;" width="4032" height="3024" xlink:href="55B6A3B0F22D24DC.jpg"  transform="matrix(1.192488e-08 1 -1 1.192488e-08 1605.9697 -2170.9517)">
	</image>
</g>
<g id="Layer_2">
</g>
<g id="Layer_3">
	<linearGradient id="SVGID_1_" gradientUnits="userSpaceOnUse" x1="135.82" y1="244.5864" x2="135.82" y2="-1.1717">
		<stop  offset="0" style="stop-color:#82836E"/>
		<stop  offset="0.4288" style="stop-color:#80816C"/>
		<stop  offset="0.6023" style="stop-color:#7B7B65"/>
		<stop  offset="0.7295" style="stop-color:#707159"/>
		<stop  offset="0.8342" style="stop-color:#626247"/>
		<stop  offset="0.924" style="stop-color:#4F5031"/>
		<stop  offset="1" style="stop-color:#3A3A17"/>
	</linearGradient>
	<path class="st1" d="M271.5,41.8c-1.1-8.9-10.5-13.7-23.1-13.7c-12.6,0-19.4,8.9-24.7,21c-5.3,12.1-1.1,26.3-2.1,37.3
		c-1.1,11-12.1,16.8-12.1,16.8s-9.5,3.2-16.8,3.7c-7.4,0.5-6.8-6.8-6.8-6.8s9.5-13.1,10.5-25.7c1.1-12.6-4.2-21.5-6.8-32.6
		c-2.6-11,3.7-12.1,3.7-12.1s5.3,8.8,11.3,12.1c6,3.2,13.7-7.5,13.2-13.7c-0.5-6.2-2.5-8.2-9.2-14.9c-6.7-6.7-22.2-6.2-29.1-0.5
		s-9,16.4-10,24.9c-1,8.5,4.5,22.7,4.7,28.9s-4.5,21.9-7,27.2c-2.5,5.2-10.2,9.2-10.2,9.2s-4.5,4-12-2.7c-7.5-6.7-6-31.9-4.2-39.6
		c1.7-7.7,9.7-23.2,11-31.6c1.2-8.5,2.2-10.2-4-21.2c-6.2-11-17.4-9-24.2-8.2c-6.7,0.7-12,8.7-12.7,17.4c-0.7,8.7,8.5,12.5,11,10.5
		s5-3.2,6.5-6.2c1.5-3,6-3.5,8.2-2c2.2,1.5,3.2,4.5,3.5,8.5c0.2,4-7.2,19.7-13.5,24.9c-6.2,5.2-12.7,22.7-13.7,29.4
		c-1,6.7,5.2,19.7,5.2,19.7s1.5,3.5-2,4c-3.5,0.5-8.5,0-8.5,0s-8.2-8.2-14.4-19.2c-6.2-11,0.5-29.9,3.5-42.3
		c3-12.5-4-25.7-11.7-31.6S67.8,6.9,63,8.4c-4.7,1.5-10,4.7-14.4,15.4c-4.5,10.7,0,12.7,10,17.4s11.7-2.7,11.7-2.7s1.7-5.2,5.7-6.7
		c4-1.5,4,1.7,3.2,9.7c-0.7,8-3.2,14.2-6.5,20.4c-3.2,6.2-9.7,19.9-10.2,30.1c-0.5,10.2,4,15.2,4,15.2h-5c0,0-1.5,0.5-4.5-0.7
		c-3-1.2-7-7.2-10.7-15.2c-3.7-8-1-36.4-3.2-46.8c-2.2-10.5-10-13.5-19.9-15.7S6.5,33.6,3,38.3c-3.5,4.7-4.5,15.9,0,23.2
		C7.5,68.7,15.2,67,19.9,63c4.7-4,3.2-8,3.2-8s-3-5.2,0-11c3-5.7,5,3.2,5,3.2c1.5,4,0.5,17.9,0.5,17.9s-3.7,16.2-2.2,34.4
		c1.5,18.2,19.9,27.6,19.9,27.6l1.5,8c0,0,0.5,17.9,1.1,58.8c0.5,41-0.5,42,10,48.1c10.5,6,39.9-0.8,53-2.9
		c13.1-2.1,35.2-1.6,35.2-1.6s60.9,5.8,73,4.2c12.1-1.6,13.7-13.1,12.6-21.5c-1.1-8.4-5.3-39.9-5.3-39.9v-32.6l-1.6-30.5
		c0,0,3.2,0,13.1-15.2c10-15.2,3.7-23.1,1.6-27.8c-2.1-4.7-2.1-14.2,0-23.6c2.1-9.5,6.3-5.8,6.3-5.8s4.2,14.2,12.6,13.1
		C267.8,57.1,272.5,50.8,271.5,41.8z M211.6,190.4c-4.2,1.1-7.9-3.7-7.9-3.7l-2.6-29.4c0,0,4.7-1.1,6.7,0c2,1.1,6.4,4.4,6.4,4.4
		v20.8C214.3,182.5,215.8,189.4,211.6,190.4z M201.1,118c4.7-0.5,13.1,7.9,13.1,7.9V140c0,0-1.1,6.3-5.3,6.5
		c-4.2,0.2-17.9-3.4-17.9-3.4l-3.2-21.5C194.3,121.7,196.4,118.5,201.1,118z M139.2,118l15.8-2.6c0,0,16.3-0.5,20.5,0
		c4.2,0.5,6.3,6.4,6.3,6.4l2.1,16c0,0-2.1,7.1-10,8.6c-7.9,1.5-34.7-3.1-34.7-3.1V118z M99.3,124.8c5.8-6.3,13.7-6.8,13.7-6.8h16.3
		c0,0,3.7,8.9,3.7,12.6c0,3.7,0,12.6,0,12.6s-12.1,1.6-18.7,2.6c-6.5,1.1-12.3,0-12.3,0l-5.8-2.6C96.1,143.2,93.5,131.1,99.3,124.8z
		 M99.3,153.7c3.7,1.1,4.2,5.8,6.3,11.6c2.1,5.8,8.6,20.5,8.6,20.5s-1.8,4.7-12.3,6.8c-10.5,2.1-18.9,4.7-22.1,0
		c-3.2-4.7,0-34.1,0-34.1C86.1,154.2,95.6,152.6,99.3,153.7z M60.4,126.9c5.3-5.8,23.1-5.2,23.1-5.2s1.6,13.1,0,20.4
		c-1.6,7.4-6.3,7.9-6.3,7.9l-18.9,3.7C58.3,153.7,55.2,132.7,60.4,126.9z M57.4,163.6c0.1-4.2,10.9,0,10.9,0l2.5,28.9l-13.4,3.2
		C57.4,195.7,57.3,167.8,57.4,163.6z M88.8,224.5c0,0-0.5,9.5-7.9,11.6c-7.4,2.1-15.8-3.2-21-5.3c-5.3-2.1,0-25.2,0-25.2
		s11.6-4.2,18.6-4.2c7,0,10.3,4.2,10.3,4.2V224.5z M119.2,229.8c0,0-17.9,1.1-20.5,2.1c-2.6,1.1-2.6-26.8-2.6-26.8s0,0,5.8-3.7
		c5.8-3.7,18.9-0.5,19.4,0C121.9,202,119.2,229.8,119.2,229.8z M128.7,182c-1.6,0.5-7.3,2.1-7.3,2.1l-7.2-31.5h7.6l6.9,18.9
		C128.7,171.5,130.3,181.5,128.7,182z M142.3,181c0,0-6.8,1.1-6.5-2.2c0.3-3.3-9.2-26.1-9.2-26.1c18.9-4.8,21,4.3,21,4.3L142.3,181z
		 M147.6,181.1l3.7-28.5h10.2c0,0,3.4,1.1,2.8,5.8c-0.7,4.7-10.1,22.7-10.1,22.7H147.6z M179.6,226.6c0,0-6.8-1.1-12.1-4.7
		c-5.3-3.7-2.6-20.5-2.6-20.5l9.2-1.8l7.7,1.8c0,0,1,13.7,2,20C184.9,227.7,179.6,226.6,179.6,226.6z M183.8,190.4l-18.9-4.2
		c0,0,4.7-28.9,10-32.6c5.3-3.7,19.4,3.2,19.4,3.2s5.3,24.7,4.2,29.4C197.5,190.9,183.8,190.4,183.8,190.4z M214.6,226.7l-6.7,5.2
		c0,0-9.9-0.6-13-5.2c-3.2-4.7-2.6-21.1-2.6-21.1l15.6-4.2c0,0,5.9,3.7,8.5,11.8S214.6,226.7,214.6,226.7z"/>
</g>
</svg>
